<svg xmlns="http://www.w3.org/2000/svg" viewBox="0 0 512 512">
  <defs>
    <!-- DNA 螺旋渐变 -->
    <linearGradient id="dnaGrad1" x1="0%" y1="0%" x2="0%" y2="100%">
      <stop offset="0%" style="stop-color:#22d3ee"/>
      <stop offset="100%" style="stop-color:#06b6d4"/>
    </linearGradient>
    <linearGradient id="dnaGrad2" x1="0%" y1="0%" x2="0%" y2="100%">
      <stop offset="0%" style="stop-color:#a78bfa"/>
      <stop offset="100%" style="stop-color:#8b5cf6"/>
    </linearGradient>
    <!-- 发光效果 -->
    <filter id="glow">
      <feGaussianBlur stdDeviation="4" result="coloredBlur"/>
      <feMerge>
        <feMergeNode in="coloredBlur"/>
        <feMergeNode in="SourceGraphic"/>
      </feMerge>
    </filter>
  </defs>
  
  <!-- DNA 双螺旋 - 左侧链 -->
  <g filter="url(#glow)">
    <!-- 左螺旋 -->
    <path d="M140 60 
             Q190 130 140 200 
             Q90 270 140 340 
             Q190 410 140 480"
          fill="none" stroke="url(#dnaGrad1)" stroke-width="24" stroke-linecap="round"/>
    
    <!-- 右螺旋 -->
    <path d="M240 60 
             Q190 130 240 200 
             Q290 270 240 340 
             Q190 410 240 480"
          fill="none" stroke="url(#dnaGrad2)" stroke-width="24" stroke-linecap="round"/>
    
    <!-- 横向连接 (碱基对) -->
    <ellipse cx="190" cy="110" rx="35" ry="10" fill="#e0e7ff" opacity="0.9"/>
    <ellipse cx="190" cy="200" rx="35" ry="10" fill="#c7d2fe" opacity="0.9"/>
    <ellipse cx="190" cy="290" rx="35" ry="10" fill="#e0e7ff" opacity="0.9"/>
    <ellipse cx="190" cy="380" rx="35" ry="10" fill="#c7d2fe" opacity="0.9"/>
  </g>
  
  <!-- AI 神经网络元素 -->
  <g transform="translate(280, 130)">
    <!-- 中心节点 -->
    <circle cx="90" cy="100" r="28" fill="#fbbf24" filter="url(#glow)"/>
    
    <!-- 连接线 -->
    <line x1="90" y1="100" x2="20" y2="50" stroke="#fcd34d" stroke-width="4" opacity="0.8"/>
    <line x1="90" y1="100" x2="160" y2="50" stroke="#fcd34d" stroke-width="4" opacity="0.8"/>
    <line x1="90" y1="100" x2="20" y2="150" stroke="#fcd34d" stroke-width="4" opacity="0.8"/>
    <line x1="90" y1="100" x2="160" y2="150" stroke="#fcd34d" stroke-width="4" opacity="0.8"/>
    <line x1="90" y1="100" x2="90" y2="170" stroke="#fcd34d" stroke-width="4" opacity="0.8"/>
    <line x1="90" y1="100" x2="90" y2="30" stroke="#fcd34d" stroke-width="4" opacity="0.8"/>
    
    <!-- 外围节点 -->
    <circle cx="20" cy="50" r="14" fill="#fcd34d"/>
    <circle cx="160" cy="50" r="14" fill="#fcd34d"/>
    <circle cx="20" cy="150" r="14" fill="#fcd34d"/>
    <circle cx="160" cy="150" r="14" fill="#fcd34d"/>
    <circle cx="90" cy="30" r="14" fill="#fcd34d"/>
    <circle cx="90" cy="170" r="14" fill="#fcd34d"/>
  </g>
</svg>